<svg width="0" height="0" class="hidden">
  <symbol version="1.1" id="icon-ua" xmlns="http://www.w3.org/2000/svg" xmlns:xlink="http://www.w3.org/1999/xlink" x="0px" y="0px" xml:space="preserve" viewBox="0 0 64 42">
    <path id="Rounded_Rectangle_7_copy" d="M5.8,0h52.3C61.4,0,64,2.6,64,5.7v30.6c0,3.2-2.6,5.7-5.8,5.7H5.8
	C2.6,42,0,39.4,0,36.3V5.7C0,2.6,2.6,0,5.8,0z"></path>
    <path d="M0,36.3C0,39.4,2.6,42,5.8,42h52.4c3.2,0,5.8-2.5,5.8-5.7V21H0V36.3z"></path>
  </symbol>
  <symbol version="1.1" id="lang" xmlns="http://www.w3.org/2000/svg" xmlns:xlink="http://www.w3.org/1999/xlink" x="0px" y="0px" enable-background="new 0 0 32 32" xml:space="preserve" viewBox="0 0 32 32">
    <g>
      <path fill="#828282" d="M0.034,16.668C0.388,25.179,7.403,32,16,32s15.612-6.821,15.966-15.332C31.985,16.615,32,16.56,32,16.5
		c0-0.036-0.013-0.067-0.02-0.1C31.983,16.266,32,16.135,32,16c0-8.822-7.178-16-16-16S0,7.178,0,16c0,0.135,0.017,0.266,0.02,0.4
		C0.013,16.433,0,16.464,0,16.5C0,16.56,0.015,16.615,0.034,16.668z M24.921,22.742c-1.319-0.552-2.735-0.979-4.215-1.271
		c0.158-1.453,0.251-2.962,0.28-4.47h4.98C25.875,19.055,25.51,20.994,24.921,22.742z M26.965,17h3.984
		c-0.186,2.806-1.138,5.403-2.663,7.579c-0.759-0.533-1.577-1.019-2.457-1.44C26.474,21.27,26.871,19.196,26.965,17z M12.389,22.286
		C13.567,22.102,14.776,22,16,22c1.224,0,2.433,0.102,3.61,0.286C18.916,27.621,17.4,31,16,31S13.084,27.621,12.389,22.286z
		 M13.908,30.664c-2.751-0.882-5.078-3.471-6.482-6.984c1.246-0.525,2.586-0.935,3.99-1.217
		C11.875,25.959,12.714,29.005,13.908,30.664z M12.274,10.709C13.491,10.897,14.739,11,16,11c1.261,0,2.509-0.103,3.726-0.291
		C19.898,12.329,20,14.097,20,16h-8C12,14.097,12.102,12.329,12.274,10.709z M19.985,17c-0.028,1.525-0.118,2.961-0.26,4.291
		C18.509,21.103,17.262,21,16,21c-1.262,0-2.509,0.103-3.726,0.291c-0.173-1.626-0.237-3.057-0.26-4.291H19.985z M20.585,22.463
		c1.404,0.282,2.743,0.692,3.99,1.217c-1.404,3.513-3.731,6.102-6.482,6.984C19.286,29.005,20.125,25.959,20.585,22.463z M21,16
		c0-1.836-0.102-3.696-0.294-5.47c1.48-0.292,2.896-0.72,4.215-1.271C25.605,11.288,26,13.574,26,16H21z M20.585,9.537
		c-0.46-3.496-1.298-6.543-2.493-8.201c2.751,0.882,5.078,3.471,6.482,6.984C23.328,8.845,21.989,9.256,20.585,9.537z M19.611,9.714
		C18.433,9.898,17.224,10,16,10s-2.433-0.102-3.611-0.286C13.084,4.379,14.6,1,16,1C17.4,1,18.916,4.379,19.611,9.714z
		 M11.415,9.537c-1.404-0.282-2.743-0.692-3.99-1.217c1.404-3.513,3.731-6.102,6.482-6.984C12.714,2.995,11.875,6.041,11.415,9.537z
		 M11.294,10.53C11.102,12.304,11,14.164,11,16H6c0-2.426,0.395-4.712,1.079-6.742C8.398,9.81,9.814,10.237,11.294,10.53z
		 M11.014,17c0.029,1.508,0.122,3.017,0.28,4.471c-1.48,0.292-2.896,0.72-4.215,1.271C6.49,20.994,6.125,19.055,6.034,17H11.014z
		 M6.17,23.139c-0.88,0.422-1.697,0.907-2.456,1.44C2.189,22.403,1.237,19.807,1.051,17h3.984C5.129,19.196,5.526,21.27,6.17,23.139
		z M4.313,25.38c0.685-0.479,1.417-0.922,2.207-1.305c1.004,2.485,2.449,4.548,4.186,5.943C8.18,29.06,5.977,27.45,4.313,25.38z
		 M21.294,30.017c1.738-1.394,3.182-3.458,4.186-5.943c0.79,0.384,1.522,0.826,2.207,1.305C26.023,27.45,23.82,29.06,21.294,30.017z
		 M27,16c0-2.567-0.428-4.987-1.17-7.139c0.88-0.422,1.698-0.907,2.457-1.44C29.991,9.855,31,12.81,31,16H27z M27.688,6.62
		c-0.685,0.479-1.417,0.921-2.207,1.305c-1.004-2.485-2.449-4.549-4.186-5.943C23.82,2.94,26.023,4.55,27.688,6.62z M10.706,1.983
		C8.968,3.377,7.524,5.441,6.52,7.926C5.729,7.542,4.998,7.099,4.313,6.62C5.977,4.55,8.18,2.94,10.706,1.983z M3.714,7.421
		C4.472,7.954,5.29,8.439,6.17,8.861C5.428,11.013,5,13.433,5,16H1C1,12.81,2.009,9.855,3.714,7.421z"></path>
    </g>
  </symbol>
  <symbol version="1.1" id="icon-eng" xmlns="http://www.w3.org/2000/svg" xmlns:xlink="http://www.w3.org/1999/xlink" x="0px" y="0px" xml:space="preserve" viewBox="0 0 64 42">
    <polygon points="64,36 64,6 38,21 "></polygon>
    <path d="M61,0.8C60.2,0.3,59.2,0,58.1,0H5.8c-1,0-2,0.3-2.9,0.8L32,17.5L61,0.8z"></path>
    <path d="M2.9,41.2C3.8,41.7,4.8,42,5.8,42h52.4c1,0,2-0.3,2.9-0.7L32,24.5L2.9,41.2z"></path>
    <polygon points="0,6 0,36 26,21 "></polygon>
    <path d="M27,20.4L0.1,4.9C0,5.1,0,5.4,0,5.7V6l26,15L27,20.4z"></path>
    <path d="M37,21.6l26.9,15.6c0-0.3,0.1-0.5,0.1-0.8V36L38,21L37,21.6z"></path>
    <path d="M63.3,39.1L35,22.7l-3,1.7l29.1,16.8C62,40.7,62.8,40,63.3,39.1z"></path>
    <path d="M0.7,2.9L29,19.3l3-1.7L2.9,0.8C2,1.3,1.3,2,0.7,2.9z"></path>
    <path d="M0.7,2.9c-0.3,0.6-0.5,1.3-0.6,2L27,20.4l2-1.2L0.7,2.9z"></path>
    <path d="M35,22.7L63.3,39c0.3-0.6,0.5-1.2,0.6-1.9L37,21.6L35,22.7z"></path>
    <path d="M31,23.9L2,40.6c0.3,0.2,0.6,0.4,0.9,0.6L32,24.5L31,23.9z"></path>
    <path d="M0.7,39.1L29,22.7L26,21L0,36v0.3C0,37.3,0.3,38.2,0.7,39.1z"></path>
    <path d="M33,18.1L62,1.4c-0.3-0.2-0.6-0.4-0.9-0.6L32,17.5L33,18.1z"></path>
    <path d="M63.3,3L35,19.3l3,1.7L64,6V5.7C64,4.7,63.7,3.8,63.3,3z"></path>
    <path d="M0.7,39.1C1,39.7,1.5,40.2,2,40.7L31,24l-2-1.2L0.7,39.1z"></path>
    <polygon points="32,21 31,22.7 30,22.2 29,22.7 31,23.9 33,22.7 "></polygon>
    <polygon points="31,22.7 32,21 30,22.2 "></polygon>
    <path d="M63.3,3C63,2.4,62.5,1.9,62,1.4L33,18.1l2,1.2L63.3,3z"></path>
    <polygon points="32,21 33,19.3 34,19.8 35,19.3 33,18.1 31,19.3 "></polygon>
    <polygon points="32,21 34,19.8 33,19.3 "></polygon>
    <polygon points="64,16 37,16 37,0 27,0 27,16 0,16 0,26 27,26 27,42 37,42 37,26 64,26 "></polygon>
    <polygon points="64,18 35,18 35,0 29,0 29,18 0,18 0,24 29,24 29,42 35,42 35,24 64,24 "></polygon>
  </symbol>
  <symbol version="1.1" id="icon-ru" xmlns="http://www.w3.org/2000/svg" xmlns:xlink="http://www.w3.org/1999/xlink" x="0px" y="0px" xml:space="preserve" viewBox="0 0 64 42">
    <path id="Rounded_Rectangle_7_copy_1_" d="M5.8,0h52.3C61.4,0,64,2.6,64,5.7v30.6c0,3.2-2.6,5.7-5.8,5.7H5.8
	C2.6,42,0,39.4,0,36.3V5.7C0,2.6,2.6,0,5.8,0z"></path>
    <path d="M0,36.3C0,39.4,2.6,42,5.8,42h52.4c3.2,0,5.8-2.5,5.8-5.7V14H0V36.3z"></path>
    <rect y="14" width="64" height="14"></rect>
  </symbol>
</svg>